<svg xmlns="http://www.w3.org/2000/svg" xmlns:xlink="http://www.w3.org/1999/xlink" preserveAspectRatio="xMidYMid meet" version="1.0" viewBox="4.9 6.8 315.7 315.6" zoomAndPan="magnify" style="fill: rgb(0, 0, 0);" original_string_length="3201"><g id="__id18_s3ua4fu3zw"><path d="M308.1,103.1c-8-18.8-19.3-35.7-33.8-50.1c-14.5-14.5-31.3-25.8-50.1-33.8C204.7,10.9,184,6.8,162.7,6.8 c-21.3,0-41.9,4.2-61.5,12.4c-18.8,8-35.7,19.3-50.1,33.8c-14.5,14.5-25.8,31.3-33.8,50.1c-8.3,19.5-12.4,40.2-12.4,61.5 c0,21.3,4.2,41.9,12.4,61.5c8,18.8,19.3,35.7,33.8,50.1c14.5,14.5,31.3,25.8,50.1,33.8c19.5,8.3,40.2,12.4,61.5,12.4 c21.3,0,41.9-4.2,61.5-12.4c18.8-8,35.7-19.3,50.1-33.8c14.5-14.5,25.8-31.3,33.8-50.1c8.3-19.5,12.4-40.2,12.4-61.5 C320.6,143.3,316.4,122.6,308.1,103.1z M306.4,225.3c-7.9,18.6-19.1,35.3-33.4,49.6c-14.3,14.3-31,25.5-49.6,33.4 c-19.3,8.2-39.7,12.3-60.8,12.3c-21,0-41.5-4.1-60.8-12.3c-18.6-7.9-35.3-19.1-49.6-33.4c-14.3-14.3-25.5-31-33.4-49.6 C10.9,206,6.7,185.6,6.7,164.6c0-21,4.1-41.5,12.3-60.8c7.9-18.6,19.1-35.3,33.4-49.6C66.7,40,83.4,28.7,102,20.9 c19.3-8.2,39.7-12.3,60.8-12.3c21,0,41.5,4.1,60.8,12.3c18.6,7.9,35.3,19.1,49.6,33.4c14.3,14.3,25.5,31,33.4,49.6 c8.2,19.3,12.3,39.7,12.3,60.8C318.7,185.6,314.6,206,306.4,225.3z M252.3,75c-11.6-11.6-25.2-20.7-40.3-27.1 c-15.7-6.6-32.3-10-49.3-10s-33.7,3.4-49.3,10C98.3,54.2,84.7,63.4,73.1,75C61.5,86.6,52.4,100.1,46,115.2 c-6.6,15.7-10,32.3-10,49.3s3.4,33.7,10,49.3c6.4,15.1,15.5,28.6,27.1,40.3c11.6,11.6,25.2,20.7,40.3,27.1c15.7,6.6,32.3,10,49.3,10 s33.7-3.4,49.3-10c15.1-6.4,28.6-15.5,40.3-27.1c11.6-11.6,20.7-25.2,27.1-40.3c6.6-15.7,10-32.3,10-49.3s-3.4-33.7-10-49.3 C273.1,100.1,264,86.6,252.3,75z M277.8,213.2c-6.3,14.9-15.3,28.2-26.7,39.7c-11.5,11.5-24.8,20.4-39.7,26.7 c-15.4,6.5-31.8,9.8-48.6,9.8s-33.2-3.3-48.6-9.8c-14.9-6.3-28.2-15.3-39.7-26.7C63,241.5,54,228.1,47.7,213.2 c-6.5-15.4-9.8-31.8-9.8-48.6s3.3-33.2,9.8-48.6C54,101.1,63,87.7,74.4,76.3c11.5-11.5,24.8-20.4,39.7-26.7 c15.4-6.5,31.8-9.8,48.6-9.8s33.2,3.3,48.6,9.8c14.9,6.3,28.2,15.3,39.7,26.7c11.5,11.5,20.4,24.8,26.7,39.7 c6.5,15.4,9.8,31.8,9.8,48.6S284.3,197.8,277.8,213.2z M230.3,97c-8.8-8.8-19-15.7-30.4-20.5c-11.8-5-24.3-7.5-37.2-7.5 s-25.4,2.5-37.2,7.5c-11.4,4.8-21.6,11.7-30.4,20.5c-8.8,8.8-15.7,19-20.5,30.4c-5,11.8-7.5,24.3-7.5,37.2c0,12.9,2.5,25.4,7.5,37.2 c4.8,11.4,11.7,21.6,20.5,30.4c8.8,8.8,19,15.7,30.4,20.5c11.8,5,24.3,7.5,37.2,7.5s25.4-2.5,37.2-7.5c11.4-4.8,21.6-11.7,30.4-20.5 c8.8-8.8,15.7-19,20.5-30.4c5-11.8,7.5-24.3,7.5-37.2c0-12.9-2.5-25.4-7.5-37.2C246,116,239.1,105.7,230.3,97z M249.2,201.1 c-4.7,11.2-11.5,21.2-20.1,29.8c-8.6,8.6-18.6,15.4-29.8,20.1c-11.6,4.9-23.9,7.4-36.5,7.4s-24.9-2.5-36.5-7.4 c-11.2-4.7-21.2-11.5-29.8-20.1c-8.6-8.6-15.4-18.6-20.1-29.8c-4.9-11.6-7.4-23.9-7.4-36.5s2.5-24.9,7.4-36.5 c4.7-11.2,11.5-21.2,20.1-29.8c8.6-8.6,18.6-15.4,29.8-20.1c11.6-4.9,23.9-7.4,36.5-7.4s24.9,2.5,36.5,7.4 c11.2,4.7,21.2,11.5,29.8,20.1c8.6,8.6,15.4,18.6,20.1,29.8c4.9,11.6,7.4,23.9,7.4,36.5S254,189.5,249.2,201.1z M162.7,100.1 c-35.6,0-64.5,28.9-64.5,64.5s28.9,64.5,64.5,64.5s64.5-28.9,64.5-64.5S198.3,100.1,162.7,100.1z M162.7,227.3 c-34.6,0-62.7-28.1-62.7-62.7s28.1-62.7,62.7-62.7s62.7,28.1,62.7,62.7S197.3,227.3,162.7,227.3z" style="fill: rgb(0, 0, 0);"/></g></svg>